HIERARCHY
ROOT Hips
{
	OFFSET 0.000000 0.000000 0.000000 
	CHANNELS 6 Xposition Yposition Zposition Yrotation Zrotation Xrotation 
	JOINT Lumbar
	{
		OFFSET 0.000000 0.000000 0.000000 
		CHANNELS 3 Zrotation Xrotation Yrotation
		JOINT Neck
		{
			OFFSET 0.000000 0.445665 0.000000 
			CHANNELS 3 Zrotation Xrotation Yrotation
			End Site
			{
				OFFSET 0.000000 0.227535 0.000000 
			}
		}
		JOINT RightShoulder
		{
			OFFSET 0.019635 0.377685 0.194865 
			CHANNELS 3 Zrotation Xrotation Yrotation
			JOINT RightElbow
			{
				OFFSET 0.000000 -0.243375 0.000000 
				CHANNELS 2 Zrotation Yrotation
				JOINT RightWrist
				{
					OFFSET 0.000000 -0.264825 0.000000 
					CHANNELS 2 Zrotation Xrotation
					End Site
					{
						OFFSET 0.006600 -0.176220 0.000990 
					}
				}
			}
		}
		JOINT LeftShoulder
		{
			OFFSET 0.019635 0.377685 -0.194865 
			CHANNELS 3 Zrotation Xrotation Yrotation
			JOINT LeftElbow
			{
				OFFSET 0.000000 -0.243375 0.000000 
				CHANNELS 2 Zrotation Yrotation
				JOINT LeftWrist
				{
					OFFSET 0.000000 -0.264825 0.000000 
					CHANNELS 2 Zrotation Xrotation
					End Site
					{
						OFFSET 0.006600 -0.176220 -0.000990 
					}
				}
			}
		}
	}
	JOINT RightHip
	{
		OFFSET 0.052140 -0.069960 0.075570 
		CHANNELS 3 Zrotation Xrotation Yrotation
		JOINT RightKnee
		{
			OFFSET 0.000000 -0.402270 0.000000 
			CHANNELS 1 Zrotation
			JOINT RightAnkle
			{
				OFFSET 0.000000 -0.404085 0.000000 
				CHANNELS 3 Zrotation Xrotation Yrotation
				End Site
				{
					OFFSET 0.204105 -0.089430 0.008415 
				}
			}
		}
	}
	JOINT LeftHip
	{
		OFFSET 0.052140 -0.069960 -0.075570 
		CHANNELS 3 Zrotation Xrotation Yrotation
		JOINT LeftKnee
		{
			OFFSET 0.000000 -0.402270 0.000000 
			CHANNELS 1 Zrotation
			JOINT LeftAnkle
			{
				OFFSET 0.000000 -0.404085 0.000000 
				CHANNELS 3 Zrotation Xrotation Yrotation
				End Site
				{
					OFFSET 0.204105 -0.089430 -0.008415 
				}
			}
		}
	}
}
MOTION
Frames: 22
Frame Time: 0.02
0.00013 -0.00083 0.0126 15.49454 -22.47858 -3.79551 44.9796 1.18643 -9.12465 -7.40625 -4.27416 -0.78329 -25.8144 -13.21878 2.30303 42.04039 90.69046 7.83213 -0.05202 -28.72578 17.16288 0.49752 43.87948 -93.46951 15.51592 0.42534 34.98138 2.76669 -13.84642 -21.25137 -7.35182 -3.35746 -3.88459 34.39405 14.06533 9.73346 -19.93946 -9.64254 3.61348 4.1592
0.00164 -0.0007 0.0134 15.45323 -22.30568 -3.54704 44.42876 1.27006 -8.63239 -7.32935 -4.26802 -0.83517 -25.58529 -13.39609 2.22408 41.65078 90.45673 8.00613 -0.10734 -28.72245 16.94307 0.66317 43.22601 -93.66327 15.92637 0.44534 34.52535 2.57111 -14.43463 -21.13023 -7.29607 -3.26627 -3.84045 35.00779 13.74465 9.38207 -21.52349 -9.68628 3.64107 4.17455
0.00314 -0.00058 0.01421 15.41188 -22.13382 -3.29891 43.87953 1.35353 -8.1406 -7.2525 -4.26154 -0.8869 -25.35623 -13.57283 2.14459 41.26091 90.22548 8.18009 -0.16213 -28.71954 16.72376 0.82825 42.57451 -93.85643 16.33595 0.46525 34.07101 2.37593 -15.02005 -21.00937 -7.2405 -3.17542 -3.79648 35.62213 13.42473 9.03295 -23.10482 -9.7296 3.66828 4.1897
0.00464 -0.00046 0.01501 15.37066 -21.96154 -3.05113 43.33039 1.43691 -7.64969 -7.17582 -4.25537 -0.93862 -25.12772 -13.7496 2.06574 40.87225 89.99282 8.35365 -0.21722 -28.71627 16.50459 0.99338 41.92303 -94.04949 16.74518 0.48519 33.61646 2.18091 -15.60628 -20.88861 -7.18493 -3.08452 -3.75248 36.23438 13.10502 8.68286 -24.68444 -9.77315 3.69573 4.20497
0.00614 -0.00034 0.01582 15.32954 -21.78801 -2.80321 42.77962 1.52043 -7.15872 -7.09914 -4.24966 -0.99049 -24.89944 -13.92696 1.98777 40.48445 89.75686 8.52703 -0.27297 -28.7125 16.28502 1.15913 41.26966 -94.24341 17.15521 0.50521 33.16006 1.98557 -16.1957 -20.76757 -7.12916 -2.99326 -3.7083 36.8451 12.7846 8.33002 -26.26561 -9.81723 3.72372 4.22054
0.00765 -0.00022 0.01661 15.28771 -21.61964 -2.55466 42.23365 1.60378 -6.66526 -7.02194 -4.24157 -1.0419 -24.66877 -14.10237 1.90511 40.09028 89.53542 8.70217 -0.32574 -28.7114 16.06628 1.3228 40.62216 -94.43512 17.56388 0.52488 32.71003 1.79075 -16.77271 -20.64708 -7.07401 -2.9033 -3.66476 37.46696 12.4657 7.98867 -27.847 -9.85899 3.74928 4.2348
0.00914 -0.0001 0.01743 15.24734 -21.44117 -2.3076 41.67876 1.68738 -6.17732 -6.94592 -4.2383 -1.09418 -24.4431 -14.28151 1.83186 39.70923 89.28548 8.87365 -0.38442 -28.70481 15.84606 1.49043 39.96343 -94.63032 17.97459 0.5453 32.24789 1.59509 -17.3739 -20.5257 -7.01769 -2.81082 -3.62 38.06575 12.14426 7.62478 -29.42699 -9.9053 3.77963 4.25164
0.01065 2e-05 0.01822 15.20566 -21.27186 -2.05925 41.13183 1.77076 -5.68435 -6.86872 -4.23056 -1.14569 -24.21291 -14.4572 1.75013 39.31631 89.06098 9.04837 -0.43773 -28.7035 15.62727 1.65448 39.31529 -94.82368 18.38387 0.5649 31.79651 1.40022 -17.95307 -20.40501 -6.96245 -2.72065 -3.57635 38.68575 11.82485 7.28131 -31.00686 -9.94754 3.8057 4.26617
0.01217 0.00015 0.01898 15.16217 -21.11434 -1.80884 40.59546 1.85387 -5.18459 -6.79036 -4.21736 -1.19616 -23.97663 -14.62878 1.6571 38.90757 88.8711 9.22774 -0.48412 -28.70784 15.40985 1.81391 38.6789 -95.00941 18.78986 0.584 31.35978 1.20612 -18.50428 -20.28563 -6.9085 -2.63333 -3.53407 39.33266 11.50897 6.96433 -32.59322 -9.9843 3.82596 4.27755
0.01358 0.00023 0.01994 15.12847 -20.89078 -1.56881 40.00079 1.93851 -4.72195 -6.71953 -4.2356 -1.25231 -23.77369 -14.82434 1.62626 38.58586 88.49264 9.38246 -0.56924 -28.67728 15.18343 1.9992 37.9713 -95.22287 19.21015 0.60749 30.84322 1.00701 -19.21324 -20.16008 -6.84704 -2.52972 -3.48394 39.82777 11.17595 6.49954 -34.16228 -10.05104 3.87788 4.30609
0.01525 0.00043 0.02048 15.07455 -20.80535 -1.30785 39.52764 2.01996 -4.18237 -6.63231 -4.18751 -1.29665 -23.50157 -14.9691 1.46609 38.08329 88.50513 9.58777 -0.57335 -28.72182 14.97675 2.13038 37.41628 -95.38814 19.60315 0.62076 30.49227 0.81889 -19.59144 -20.04669 -6.80147 -2.46039 -3.45035 40.64089 10.87708 6.34353 -35.75468 -10.05554 3.86417 4.29907
0.0176 0.00097 0.01994 14.96043 -21.11289 -0.9808 39.40341 2.09229 -3.41786 -6.50373 -3.95562 -1.30672 -23.02832 -14.97496 0.93276 37.05696 89.65812 9.94506 -0.34727 -28.96259 14.8186 2.10827 37.26428 -95.32955 19.89483 0.61412 30.62313 0.65771 -19.03632 -19.97417 -6.7995 -2.48663 -3.46293 42.35469 10.68921 7.06836 -37.52015 -9.87933 3.6589 4.18818
0.02024 0.00163 0.01898 14.82654 -21.55661 -0.63446 39.3985 2.16147 -2.57871 -6.35799 -3.65752 -1.30522 -22.48789 -14.92973 0.27361 35.85477 91.19086 10.35059 -0.04131 -29.28053 14.68143 2.03282 37.26798 -95.23565 20.16234 0.59612 30.91507 0.50821 -18.1541 -19.91251 -6.81345 -2.54696 -3.49196 44.38245 10.53253 8.09674 -39.2883 -9.64243 3.38989 4.04276
0.0228 0.00225 0.01819 14.70519 -21.92882 -0.3024 39.3287 2.23238 -1.78264 -6.21782 -3.39076 -1.31027 -21.98535 -14.90757 -0.3169 34.75006 92.50599 10.72561 0.22296 -29.56969 14.53821 1.98482 37.21124 -95.2227 20.46037 0.57748 31.11561 0.35537 -17.43804 -19.84095 -6.82014 -2.59078 -3.51299 46.24854 10.3501 8.96466 -40.98481 -9.43985 3.15752 3.91724
0.02513 0.00285 0.01748 14.57018 -22.34164 0.05354 39.30355 2.30214 -0.94743 -6.08723 -3.11829 -1.31004 -21.45083 -14.88597 -0.95885 33.56798 94.01316 11.13747 0.51015 -29.83274 14.37984 1.9228 37.11306 -94.95169 20.68286 0.58162 31.39387 0.19399 -16.64635 -19.79021 -6.8271 -2.63917 -3.53634 48.19629 10.21605 9.9294 -42.98102 -9.20886 2.89251 3.77388
0.02803 0.0035 0.0165 14.45719 -22.70252 0.36363 39.21446 2.37338 -0.17643 -5.93233 -2.84241 -1.31783 -20.96795 -14.85106 -1.52 32.50896 95.20889 11.4834 0.7685 -30.16812 14.2586 1.87779 37.13581 -95.18974 21.0482 0.53778 31.5477 0.05347 -15.93596 -19.69887 -6.83712 -2.68587 -3.55864 50.04727 9.9893 10.76297 -44.35066 -9.02249 2.68049 3.6595
0.0323 0.00426 0.01492 14.42457 -22.88276 0.54788 38.91261 2.45071 0.40129 -5.71756 -2.57045 -1.3526 -20.63631 -14.79237 -1.85657 31.80338 95.46371 11.64078 0.92722 -30.68688 14.22949 1.88964 37.47325 -97.01813 21.89037 0.34513 31.32349 -0.03474 -15.51992 -19.49099 -6.85289 -2.72155 -3.57498 51.56166 9.49373 11.17142 -44.01603 -8.97576 2.62984 3.63355
0.03716 0.00507 0.01308 14.41178 -23.00658 0.68418 38.54379 2.52929 0.91104 -5.47877 -2.29813 -1.39546 -20.36039 -14.72197 -2.10203 31.23355 95.39042 11.72917 1.05381 -31.27516 14.23794 1.92128 37.92333 -99.32971 22.86378 0.10783 30.9671 -0.10185 -15.19885 -19.24207 -6.87101 -2.75395 -3.58951 52.96587 8.90527 11.4353 -43.0471 -8.97559 2.63483 3.63796
0.04184 0.00584 0.01134 14.3806 -23.15885 0.83897 38.2099 2.60658 1.45079 -5.24841 -2.0276 -1.4333 -20.06412 -14.65669 -2.36987 30.62052 95.45834 11.84563 1.19585 -31.83006 14.23272 1.94566 38.30956 -101.30147 23.72581 -0.09611 30.66845 -0.1771 -14.84126 -19.01332 -6.88722 -2.78652 -3.60424 54.41608 8.36208 11.75769 -42.34944 -8.95333 2.61475 3.62853
0.04616 0.00667 0.00965 14.3894 -23.30445 1.00881 37.86025 2.68723 1.99822 -5.02613 -1.74698 -1.4764 -19.74467 -14.59057 -2.72221 29.92205 95.56961 11.97752 1.33873 -32.39565 14.21411 1.95995 38.75513 -103.76931 24.8017 -0.35431 30.38703 -0.25832 -14.44477 -18.77918 -6.90736 -2.82587 -3.62217 55.89625 7.80495 12.12054 -41.71813 -8.93359 2.59158 3.6181
0.05137 0.0074 0.00779 14.31852 -23.44821 1.13509 37.52715 2.76072 2.51087 -4.78379 -1.48926 -1.51064 -19.4874 -14.52397 -2.87556 29.43762 95.5118 12.06039 1.46916 -32.95391 14.23174 2.00182 39.10126 -105.33198 25.46832 -0.5116 30.03405 -0.32196 -14.15542 -18.54558 -6.91986 -2.84986 -3.6328 57.28148 7.25704 12.36144 -40.80483 -8.91954 2.58884 3.61736
0.05876 0.00783 0.00554 14.0342 -23.60484 1.1577 37.24603 2.81794 2.95774 -4.47414 -1.28573 -1.51818 -19.39192 -14.46106 -2.49675 29.50185 95.02838 12.0233 1.59002 -33.4787 14.34266 2.10617 39.14869 -104.16584 24.93254 -0.36501 29.53349 -0.34513 -14.14615 -18.33073 -6.90906 -2.83213 -3.62365 58.44747 6.73463 12.2946 -39.20903 -8.91833 2.62965 3.63669
